<?xml version="1.0" encoding="UTF-8"?>
<svg version="1.1" xmlns="http://www.w3.org/2000/svg" width="500" height="500">
<path d="M0 0 C0 0.66 0 1.32 0 2 C0.66 2 1.32 2 2 2 C4.33594576 5.64991525 4.22790662 8.74574307 4 13 C3.835 13.639375 3.67 14.27875 3.5 14.9375 C2.6653607 18.38038712 2.77142379 21.45706878 3 25 C6.34800917 27.23200612 7.49045884 27.24925173 11.40234375 27.2734375 C12.45744141 27.2940625 13.51253906 27.3146875 14.59960938 27.3359375 C16.82088624 27.36193255 19.04226742 27.38018975 21.26367188 27.390625 C22.32005859 27.41382812 23.37644531 27.43703125 24.46484375 27.4609375 C25.430271 27.46915527 26.39569824 27.47737305 27.39038086 27.48583984 C30.71971769 28.14180236 31.92738528 29.36386471 34 32 C34.21484375 34.47265625 34.21484375 34.47265625 33.9375 37.0625 C33.78431605 39.66044004 33.78431605 39.66044004 34 42 C36.03506935 44.18792354 36.03506935 44.18792354 39 45 C39.87398438 45.32097656 40.74796875 45.64195313 41.6484375 45.97265625 C46.27288807 47.39017431 50.94595814 48.05820907 55.72265625 48.76757812 C61.06785715 49.63294607 65.38034528 51.16624169 69.875 54.3125 C71.55634713 56.8345207 71.19651668 59.05224987 71 62 C72.155 62.0825 73.31 62.165 74.5 62.25 C81.30211186 63.13308119 86.14148524 66.3245263 91.5 70.4375 C97.53817496 74.79840414 104.09244536 76.44001842 111.15673828 78.44580078 C114.46037593 79.43907992 117.60949508 80.77643886 120.78515625 82.11328125 C122.95927998 82.98369763 125.12951369 83.65206285 127.375 84.3125 C134.48525303 86.59793847 140.8227838 90.88185587 147 95 C147 95.66 147 96.32 147 97 C147.66 97 148.32 97 149 97 C149 97.66 149 98.32 149 99 C149.66 99 150.32 99 151 99 C152.5625 101.8125 152.5625 101.8125 154 105 C153 108 153 108 151 109 C143.27940875 109.52071433 136.87486618 109.63963503 130 106 C122.14911116 102.39151693 114.47349205 102.69857143 106 103 C104.3615999 107.30646666 103.75174958 110.83703601 103.8125 115.4375 C103.81894531 116.50871094 103.82539063 117.57992187 103.83203125 118.68359375 C103.94433218 121.98844943 103.94433218 121.98844943 104.48144531 125.18188477 C105.03639556 129.2679803 105.28658284 133.29056531 105.46484375 137.40625 C105.54198865 139.04200004 105.61930641 140.67774193 105.69677734 142.31347656 C105.73583191 143.16043091 105.77488647 144.00738525 105.81512451 144.88000488 C108.09943033 193.78579627 111.28283408 250.14221339 140.93359375 291.328125 C142 293 142 293 142 295 C142.66 295 143.32 295 144 295 C147 299.38461538 147 299.38461538 147 302 C147.66 302 148.32 302 149 302 C152 305.46153846 152 305.46153846 152 308 C152.66 308 153.32 308 154 308 C154.33 309.32 154.66 310.64 155 312 C155.66 312 156.32 312 157 312 C158.60634015 313.73391951 160.1375287 315.538091 161.625 317.375 C162.44226563 318.37273437 163.25953125 319.37046875 164.1015625 320.3984375 C166 323 166 323 166 325 C166.66 325 167.32 325 168 325 C169.5078125 326.4609375 169.5078125 326.4609375 171.125 328.375 C171.66382813 329.00148438 172.20265625 329.62796875 172.7578125 330.2734375 C174 332 174 332 174 334 C174.99 334.33 175.98 334.66 177 335 C177.556875 335.70125 178.11375 336.4025 178.6875 337.125 C182.45797376 341.81261602 187.00055029 345.66703353 192 349 C192 349.66 192 350.32 192 351 C192.69351562 351.23589844 193.38703125 351.47179687 194.1015625 351.71484375 C197.54510368 353.24169691 200.37939234 355.31909151 203.375 357.5625 C208.43004985 361.257799 213.56967326 364.71207757 218.9375 367.9375 C219.53933105 368.30238525 220.14116211 368.66727051 220.76123047 369.04321289 C224.73365559 371.39734428 228.73537836 373.26256155 233 375 C233 375.66 233 376.32 233 377 C233.68191406 377.10828125 234.36382812 377.2165625 235.06640625 377.328125 C238.54523554 378.12487418 241.63976029 379.38444716 244.9375 380.75 C274.04003873 392.83870461 274.04003873 392.83870461 305 396 C305 395.34 305 394.68 305 394 C305.66 394 306.32 394 307 394 C307.061875 393.4225 307.12375 392.845 307.1875 392.25 C308.33209348 389.08035652 310.32560305 388.00579772 313 386 C313.886875 385.0925 314.77375 384.185 315.6875 383.25 C318 381 318 381 320 381 C320.25652344 380.38640625 320.51304687 379.7728125 320.77734375 379.140625 C322.85484362 375.50334088 326.12284454 374.28137676 330 373 C334.92537307 372.3389843 338.62994846 372.53938539 343 375 C342.61420268 381.11764325 340.71637185 384.59471052 337.0625 389.4375 C336.60681641 390.07365234 336.15113281 390.70980469 335.68164062 391.36523438 C334.51456769 392.95607611 333.26330803 394.48445076 332 396 C331.34 396 330.68 396 330 396 C330.33 396.99 330.66 397.98 331 399 C332.19753906 398.95359375 333.39507812 398.9071875 334.62890625 398.859375 C342.78453543 398.64393376 350.32327886 398.64286543 358.1875 401 C365.49862018 403.26870587 365.49862018 403.26870587 373 403 C376.20774141 401.24940295 379.11778014 399.24172656 382 397 C382.66 397.45375 383.32 397.9075 384 398.375 C391.84147638 402.62246637 398.92408839 402.02181773 407.49023438 401.18945312 C413.46367452 400.73420249 418.57873846 401.255752 424 404 C425.35281371 406.70562743 425.20609362 408.91893655 425.25 411.9375 C425.27578125 412.99839844 425.3015625 414.05929687 425.328125 415.15234375 C425 418 425 418 423.7890625 419.78125 C417.5117749 424.05748085 408.38029023 424.51561432 401.04296875 425.47265625 C397.94404412 425.92962453 397.94404412 425.92962453 394.86328125 427.05859375 C392 428 392 428 388 428 C388 428.66 388 429.32 388 430 C384.3389862 432.39373979 382.1855202 431.74186466 378 431 C368.11340986 430.26183354 360.29173058 431.79782649 351 435 C342.53482082 437.59562652 334.62998228 439.31517524 325.78515625 439.7265625 C322.32742048 439.97634733 319.03107346 440.44982118 315.62109375 441.03369141 C305.39179812 442.77578932 295.15994691 443.58420613 284.8125 444.1875 C284.10605347 444.23010956 283.39960693 444.27271912 282.67175293 444.31661987 C266.81714701 445.25580943 251.15774387 445.20413484 235.3125 444.0625 C234.00861328 443.97548828 232.70472656 443.88847656 231.36132812 443.79882812 C221.79590955 443.13694627 221.79590955 443.13694627 218.05151367 442.49267578 C214.56673788 441.93004857 211.15069965 441.74942153 207.625 441.58203125 C199.32456536 441.12274743 191.20046883 440.01743898 183 438.6875 C182.30277832 438.57639893 181.60555664 438.46529785 180.88720703 438.35083008 C170.7758932 436.7342696 160.82536111 434.93194147 151 432 C150.37383789 431.81469727 149.74767578 431.62939453 149.10253906 431.43847656 C145.0759942 430.23869795 141.07564156 428.96982121 137.08154297 427.66650391 C134.94854521 426.98352433 132.80635438 426.33939681 130.66015625 425.69921875 C118.98094649 422.13007276 108.62783386 416.96596047 98 411 C96.71671856 410.29713041 95.43290058 409.59523913 94.1484375 408.89453125 C86.04519239 404.42472652 78.53266496 399.35442936 71 394 C69.99839844 393.32195312 68.99679688 392.64390625 67.96484375 391.9453125 C66.59005859 391.01332031 66.59005859 391.01332031 65.1875 390.0625 C64.37667969 389.51722656 63.56585938 388.97195313 62.73046875 388.41015625 C62.15941406 387.94480469 61.58835938 387.47945313 61 387 C61 386.34 61 385.68 61 385 C60.2265625 384.6596875 60.2265625 384.6596875 59.4375 384.3125 C56.10452995 382.51782382 52.85296329 380.50034985 50 378 C50 377.34 50 376.68 50 376 C49.443125 375.7525 48.88625 375.505 48.3125 375.25 C45.57589087 373.77075182 43.32349131 372.06532561 41 370 C41 369.34 41 368.68 41 368 C40.1646875 367.6596875 40.1646875 367.6596875 39.3125 367.3125 C36.36261791 365.6382426 34.27293148 363.47083844 32 361 C31.37738281 360.32453125 30.75476563 359.6490625 30.11328125 358.953125 C18 345.57083333 18 345.57083333 18 342 C17.34 342 16.68 342 16 342 C14.36570249 339.9055032 12.85832766 337.82217909 11.375 335.625 C10.95476562 335.02171875 10.53453125 334.4184375 10.1015625 333.796875 C7 329.26537135 7 329.26537135 7 327 C6.34 327 5.68 327 5 327 C3.84594727 325.63330078 3.84594727 325.63330078 2.56640625 323.6953125 C2.08768066 322.97553223 1.60895508 322.25575195 1.11572266 321.51416016 C0.60315918 320.7257373 0.0905957 319.93731445 -0.4375 319.125 C-0.96811035 318.31724121 -1.4987207 317.50948242 -2.04541016 316.67724609 C-10.0299469 304.44818552 -17.69277944 292.1878248 -24 279 C-24.65041369 277.70930366 -25.30428828 276.42034767 -25.9609375 275.1328125 C-29.53612956 268.11357444 -32.90880177 261.10152705 -35.85546875 253.7890625 C-36.99690115 251.00755145 -38.23145607 248.28810213 -39.5 245.5625 C-47.88179273 227.24867701 -52.56685457 208.16098106 -56.99609375 188.609375 C-62.30747241 162.55623332 -62.30747241 162.55623332 -72.58203125 138.375 C-76.60182756 131.64211803 -75.75817047 122.14056239 -74.64453125 114.58984375 C-71.7711407 105.19829208 -63.10865869 98.49974801 -54.87109375 93.9609375 C-54.25363281 93.64382812 -53.63617188 93.32671875 -53 93 C-53.495 92.24589844 -53.99 91.49179688 -54.5 90.71484375 C-56.56854355 86.97099539 -56.14438216 85.07686144 -55 81 C-52.78899874 77.03544602 -51.54802027 75.49866199 -47.2109375 74.1015625 C-45.10599206 73.61580586 -42.99641043 73.14973292 -40.8828125 72.703125 C-36.11363345 71.5399106 -33.38860735 69.573755 -30.125 65.875 C-28.45768503 61.61408397 -28.76301233 57.52032035 -29 53 C-29.66 53 -30.32 53 -31 53 C-31.75 50.3125 -31.75 50.3125 -32 47 C-28.72204687 42.07915867 -24.39039551 39.31429603 -19.55859375 36.0625 C-16.86622108 33.8921599 -15.44366277 32.12961859 -14 29 C-14.55474573 26.23690643 -14.55474573 26.23690643 -16 24 C-16.66 23.67 -17.32 23.34 -18 23 C-18 22.34 -18 21.68 -18 21 C-18.99 20.67 -19.98 20.34 -21 20 C-24.86030898 16.36676802 -25.55456107 13.24562757 -26.01953125 8.18359375 C-25.99894049 5.88154648 -25.82332739 4.1533178 -25 2 C-17.1315021 -3.39994954 -8.76672759 -4.3833638 0 0 Z M-19 6 C-19 6.99 -19 7.98 -19 9 C-13.72 9 -8.44 9 -3 9 C-4.05583865 4.77664541 -4.61335615 3.56286561 -8 1 C-13.46185396 -0.04588693 -15.65190409 1.76564341 -19 6 Z M-20 9 C-19 12 -19 12 -19 12 Z M11 34 C9.1645201 35.33378575 9.1645201 35.33378575 8 37 C10.91652174 37.16681109 10.91652174 37.16681109 14 37 C14.66 36.34 15.32 35.68 16 35 C13.65466049 34.23043864 13.65466049 34.23043864 11 34 Z M12 48 C11.67 48.66 11.34 49.32 11 50 C12.8825067 55.64752011 15.7629066 59.82191905 20 64 C22.70879335 65.35439668 25.00933268 65.06501451 28 65 C29.60031344 61.79937313 28.03173691 59.27728194 27 56 C28.32 55.67 29.64 55.34 31 55 C24.90023437 51.11833097 19.22970966 48.73772548 12 48 Z M-5 61 C-5 61.33 -5 61.66 -5 62 C0.28 62 5.56 62 11 62 C11 61.34 11 60.68 11 60 C6.13967663 57.56983831 -0.32009053 58.58456286 -5 61 Z M25.640625 69.9140625 C19.15581306 71.84837336 12.57689314 73.4127652 6 75 C6 75.33 6 75.66 6 76 C7.72807318 76.33895656 9.45751974 76.67091525 11.1875 77 C12.63189453 77.2784375 12.63189453 77.2784375 14.10546875 77.5625 C16.7934206 77.96877612 19.28771019 78.07933572 22 78 C22.33 78.66 22.66 79.32 23 80 C23.66 78.02 24.32 76.04 25 74 C27.375 74.1875 27.375 74.1875 30 75 C30.72904086 76.64034193 31.38655243 78.31301918 32 80 C34.63043503 82.96767029 36.21848945 84.73949648 40 86 C42.30142435 84.21825212 43.80034391 82.83695835 44.48828125 79.953125 C44.72323102 77.9753389 44.86751458 75.98728128 45 74 C46.98 75.32 48.96 76.64 51 78 C50.566875 77.13375 50.566875 77.13375 50.125 76.25 C49.75375 75.5075 49.3825 74.765 49 74 C48.4121875 73.0409375 48.4121875 73.0409375 47.8125 72.0625 C46.75655008 69.38201174 47.24213315 67.72832067 48 65 C40.19914074 65 33.02513061 67.58671832 25.640625 69.9140625 Z M-4 78 C-0.7 77.67 2.6 77.34 6 77 C6 76.67 6 76.34 6 76 C1.69986566 75.80453935 -0.00889681 76.0044484 -4 78 Z M73 82 C73.639375 82.86625 74.27875 83.7325 74.9375 84.625 C76.97548296 87.9598812 77.63433093 90.16047478 78 94 C71.375 94.125 71.375 94.125 68 93 C68 89.7 68 86.4 68 83 C49.98648675 84.82864453 32.67036804 89.69331486 15.5625 95.5 C2.54515193 99.83911602 -10.5110519 102.59801726 -24 105 C-24 105.99 -24 106.98 -24 108 C-22.02 108.99 -20.04 109.98 -18 111 C-18 111.66 -18 112.32 -18 113 C-18.99 113.495 -18.99 113.495 -20 114 C-19.20882096 115.99983534 -19.20882096 115.99983534 -18 118 C-17.01 118.33 -16.02 118.66 -15 119 C-15.33 120.32 -15.66 121.64 -16 123 C-19.90050524 124.04852291 -22.30790727 123.89736424 -26.125 122.625 C-26.97320312 122.34914062 -27.82140625 122.07328125 -28.6953125 121.7890625 C-29.45585938 121.52867187 -30.21640625 121.26828125 -31 121 C-31.99 120.67 -32.98 120.34 -34 120 C-34 119.34 -34 118.68 -34 118 C-34.66 118 -35.32 118 -36 118 C-36.33 115.36 -36.66 112.72 -37 110 C-46.16805778 110.5914876 -54.79867002 113.02816538 -62 119 C-64.32710353 122.37805351 -65.01359473 124.26588458 -64.9375 128.375 C-63.8391414 132.62198658 -62.13000606 136.1858031 -60 140 C-59.67 140 -59.34 140 -59 140 C-58.96261719 139.05898437 -58.92523438 138.11796875 -58.88671875 137.1484375 C-58.82097656 135.90320313 -58.75523438 134.65796875 -58.6875 133.375 C-58.62949219 132.14523438 -58.57148437 130.91546875 -58.51171875 129.6484375 C-57.86240953 125.01901143 -56.45215262 121.5558778 -53.25 118.125 C-50.07927659 116.5396383 -47.49180653 116.74134766 -44 117 C-43.34 117.33 -42.68 117.66 -42 118 C-44.97 120.475 -44.97 120.475 -48 123 C-46.96962496 127.43061268 -45.52254871 130.15918506 -41.85546875 132.95703125 C-38.52307868 134.83018525 -34.82375409 135.86999236 -31 136 C-30.34 135.34 -29.68 134.68 -29 134 C-29 132.02 -29 130.04 -29 128 C-23.06 127.67 -17.12 127.34 -11 127 C-11.33 128.32 -11.66 129.64 -12 131 C-7.69618576 131.20673344 -4.81624728 130.80193648 -0.9375 128.9375 C0.48949219 128.256875 0.48949219 128.256875 1.9453125 127.5625 C5.15081152 125.92285856 8.29127317 124.18791877 11.4375 122.4375 C21.16117844 117.19903943 29.49550794 114.78772846 40.515625 114.42553711 C56.22652389 113.80391787 71.96954624 110.50539721 87 106 C87.97453125 105.72027344 88.9490625 105.44054687 89.953125 105.15234375 C94.05850867 103.95794119 98.07058906 102.70274474 102 101 C102 100.34 102 99.68 102 99 C102.5775 98.773125 103.155 98.54625 103.75 98.3125 C106.70347142 96.58964167 108.14594785 94.87697747 110 92 C111.12029615 87.43879425 111.28692086 85.05086369 109 81 C105.0625162 80.97053121 101.12506144 80.95304593 97.1875 80.9375 C95.53717773 80.92493164 95.53717773 80.92493164 93.85351562 80.91210938 C86.84267366 80.89142843 79.96824874 81.22322023 73 82 Z M137 96 C140.11016455 99.28788824 143.01618925 101.83735988 147 104 C146.67372714 100.98197607 146.38918764 99.40308719 144.25 97.1875 C141.62847443 95.80391706 139.92325122 95.75639573 137 96 Z M87.1875 114.375 C83.41520039 116.1267158 79.74039509 116.48023388 75.625 116.9375 C69.43172381 117.65707628 64.43961333 118.9632511 59 122 C60.65 123.32 62.3 124.64 64 126 C63.67 126.66 63.34 127.32 63 128 C62.34773438 127.86722656 61.69546875 127.73445312 61.0234375 127.59765625 C56.3591713 126.65517178 51.70131546 125.74231297 47 125 C46.319375 126.4540625 46.319375 126.4540625 45.625 127.9375 C44.07592089 130.3402687 43.32899884 130.91800813 40.5078125 131.62109375 C37.99557506 131.8523904 35.5223621 131.99037266 33 132 C32.9071875 133.175625 32.9071875 133.175625 32.8125 134.375 C32.544375 135.24125 32.27625 136.1075 32 137 C29.8125 138.125 29.8125 138.125 27 139 C25.65615234 139.74830078 25.65615234 139.74830078 24.28515625 140.51171875 C20.56525792 142.19695212 17.68879792 142.49581142 13.625 142.6875 C11.75714844 142.78611328 11.75714844 142.78611328 9.8515625 142.88671875 C8.44003906 142.94279297 8.44003906 142.94279297 7 143 C5.83917226 148.03582108 6.52212984 150.38112714 9.0625 154.8828125 C12.04752633 160.33463142 12.04752633 160.33463142 11.75 164.5 C11.5025 165.325 11.255 166.15 11 167 C10.34 167 9.68 167 9 167 C8.67 167.66 8.34 168.32 8 169 C4.9742169 169.60967271 1.94530688 169.95979927 -1.1171875 170.33984375 C-4.14430032 171.03304438 -5.20450599 171.52137191 -7 174 C-7.72197162 176.60611077 -7.72197162 176.60611077 -8 179 C-10.475 179.495 -10.475 179.495 -13 180 C-13.41890218 182.78938212 -13.41890218 182.78938212 -13 186 C-10.81197419 188.93854074 -10.81197419 188.93854074 -8 191 C-7.01 191 -6.02 191 -5 191 C-1.61511794 191.50413137 1.69501401 192.11019608 5 193 C4.01 190.03 4.01 190.03 3 187 C5.31 187.66 7.62 188.32 10 189 C10 188.34 10 187.68 10 187 C9.34 187 8.68 187 8 187 C8 185.68 8 184.36 8 183 C12.875 184.75 12.875 184.75 14 187 C14 186.01 14 185.02 14 184 C13.34 184 12.68 184 12 184 C10.79371992 181.66785852 9.8345262 179.50357861 9 177 C15.26024811 179.84671242 21.36556365 182.76707683 26 188 C26 188.66 26 189.32 26 190 C24.02 190 22.04 190 20 190 C20.02320313 190.62648438 20.04640625 191.25296875 20.0703125 191.8984375 C20.08835938 192.71570313 20.10640625 193.53296875 20.125 194.375 C20.14820313 195.18710938 20.17140625 195.99921875 20.1953125 196.8359375 C20 199 20 199 18 201 C15.5 200.8125 15.5 200.8125 13 200 C12.34 199.01 11.68 198.02 11 197 C10.34 197 9.68 197 9 197 C9.32613281 197.8559375 9.65226562 198.711875 9.98828125 199.59375 C11.02937337 203.09889411 11.235197 205.85768386 11.1875 209.5 C11.18105469 210.5828125 11.17460938 211.665625 11.16796875 212.78125 C11.00395535 215.92420444 10.58178555 218.90955517 10 222 C8.35 221.67 6.7 221.34 5 221 C1.12058257 211.13707432 1.12058257 211.13707432 3 206 C5.0625 204.625 5.0625 204.625 7 204 C6.34 204 5.68 204 5 204 C4.896875 203.401875 4.79375 202.80375 4.6875 202.1875 C3.87744486 199.61005181 3.19710995 198.56936425 1 197 C-1.4097694 196.53582715 -1.4097694 196.53582715 -4 197 C-6.15568059 198.83390408 -6.15568059 198.83390408 -7.875 201.3125 C-8.49117188 202.11300781 -9.10734375 202.91351563 -9.7421875 203.73828125 C-10.36480469 204.85783203 -10.36480469 204.85783203 -11 206 C-9.78007508 209.65977475 -8.56675638 210.18225505 -5.4375 212.3125 C-1.0808803 215.57133438 -1.0808803 215.57133438 -0.375 219.3125 C-1 222 -1 222 -2 224 C-1.20335938 224.47566406 -1.20335938 224.47566406 -0.390625 224.9609375 C5.78961992 229.04350805 7.78404693 233.07788918 10 240 C11.08099002 243.25687414 11.08099002 243.25687414 13 246 C14.66617115 246.04063832 16.33388095 246.042721 18 246 C18 245.01 18 244.02 18 243 C19.32 242.67 20.64 242.34 22 242 C22 241.34 22 240.68 22 240 C20.55747343 239.06068037 19.11289447 238.12430501 17.65625 237.20703125 C14.91427655 235.20875343 13.09410154 232.66007493 11 230 C10.1028125 229.13375 10.1028125 229.13375 9.1875 228.25 C8 227 8 227 8 225 C11.465 224.505 11.465 224.505 15 224 C15 219.05 15 214.1 15 209 C15.99 209 16.98 209 18 209 C18 208.34 18 207.68 18 207 C18.66 207 19.32 207 20 207 C20 212.94 20 218.88 20 225 C24.06299997 225.45218674 24.06299997 225.45218674 26.4375 222.75 C27.283125 221.8425 28.12875 220.935 29 220 C30.64864545 218.64444707 32.31003995 217.30368347 34 216 C33.67 215.01 33.34 214.02 33 213 C33.66 213 34.32 213 35 213 C35 212.34 35 211.68 35 211 C35.66 211 36.32 211 37 211 C37 211.66 37 212.32 37 213 C37.66 213 38.32 213 39 213 C39 209.37 39 205.74 39 202 C39.99 203.32 40.98 204.64 42 206 C42 205.01 42 204.02 42 203 C47.04456605 204.2229251 49.33745503 207.44268232 52.44921875 211.3203125 C52.96097656 211.87460938 53.47273438 212.42890625 54 213 C54.66 213 55.32 213 56 213 C57.66666667 216.33333333 59.33333333 219.66666667 61 223 C60.01 223.66 59.02 224.32 58 225 C58.33 226.65 58.66 228.3 59 230 C58.401875 229.67 57.80375 229.34 57.1875 229 C54.94613529 227.79212012 54.94613529 227.79212012 52 228 C52 228.66 52 229.32 52 230 C49.5625 229.625 49.5625 229.625 47 229 C46.67 228.34 46.34 227.68 46 227 C45.34 227 44.68 227 44 227 C43.86722656 226.43796875 43.73445313 225.8759375 43.59765625 225.296875 C42.97562889 222.90633847 42.22884959 220.58964225 41.4375 218.25 C41.16808594 217.45078125 40.89867187 216.6515625 40.62109375 215.828125 C40.41613281 215.22484375 40.21117187 214.6215625 40 214 C39.67 214 39.34 214 39 214 C39 215.65 39 217.3 39 219 C38.01 219.33 37.02 219.66 36 220 C36.58910156 220.73605469 37.17820313 221.47210938 37.78515625 222.23046875 C38.53667969 223.20628906 39.28820312 224.18210937 40.0625 225.1875 C40.81660156 226.15042969 41.57070312 227.11335938 42.34765625 228.10546875 C44 231 44 231 43.80859375 233.80078125 C43 236 43 236 42 237 C40.14227838 236.91015699 38.28752015 236.75388139 36.4375 236.5625 C35.42558594 236.46066406 34.41367188 236.35882813 33.37109375 236.25390625 C32.58863281 236.17011719 31.80617187 236.08632813 31 236 C31.33 236.99 31.66 237.98 32 239 C32.99 239 33.98 239 35 239 C35.33 239.99 35.66 240.98 36 242 C36.94875 242.7425 37.8975 243.485 38.875 244.25 C42.3178905 247.01424381 43.67926614 249.74430202 45 254 C45.03954234 256.33299825 45.04401732 258.66708189 45 261 C45.88064927 263.35369807 45.88064927 263.35369807 47 265 C47.66 265 48.32 265 49 265 C49 265.66 49 266.32 49 267 C51.64 266.67 54.28 266.34 57 266 C57.99 268.475 57.99 268.475 59 271 C59.66 271 60.32 271 61 271 C61 268.36 61 265.72 61 263 C62.60785777 263.59427388 64.21117709 264.20083588 65.8125 264.8125 C66.70582031 265.14894531 67.59914063 265.48539063 68.51953125 265.83203125 C72.32008927 267.62158534 73.59619013 268.99115058 75.16796875 272.91796875 C75.50441406 273.99691406 75.84085937 275.07585937 76.1875 276.1875 C76.53167969 277.27417969 76.87585938 278.36085938 77.23046875 279.48046875 C77.48441406 280.31191406 77.73835938 281.14335937 78 282 C78.66 282 79.32 282 80 282 C79.41347648 277.51006131 78.2356462 273.77456816 76.4375 269.625 C75.98246094 268.56539062 75.52742188 267.50578125 75.05859375 266.4140625 C74.70925781 265.61742187 74.35992187 264.82078125 74 264 C75.921875 264.37109375 75.921875 264.37109375 78 265 C79.25 267.0625 79.25 267.0625 80 269 C80.66 269 81.32 269 82 269 C82.26683594 269.58136719 82.53367187 270.16273438 82.80859375 270.76171875 C84.0238387 273.04478549 85.41508326 274.82507587 87.0625 276.8125 C90.3276977 281.06281818 91 284.66617169 91 290 C90.28972656 290.19335938 89.57945312 290.38671875 88.84765625 290.5859375 C87.92855469 290.84632813 87.00945312 291.10671875 86.0625 291.375 C85.14597656 291.63023437 84.22945313 291.88546875 83.28515625 292.1484375 C80.83254913 292.76660104 80.83254913 292.76660104 80 295 C80.66 295 81.32 295 82 295 C82 295.66 82 296.32 82 297 C86.50512987 300.97511459 91.36741905 305.02511365 97.375 306.1875 C101.66974101 307.15011437 103.12039791 308.7816212 106 312 C106.66 312 107.32 312 108 312 C108 312.99 108 313.98 108 315 C108.66 315 109.32 315 110 315 C110.33 318.3 110.66 321.6 111 325 C107.4513865 327.36574234 106.4235475 327.10865265 102.3125 326.625 C101.31863281 326.51414062 100.32476562 326.40328125 99.30078125 326.2890625 C98.16189453 326.14597656 98.16189453 326.14597656 97 326 C98.47997082 328.95994164 100.47336459 329.04095984 103.5625 330.125 C116.6318842 334.98836031 130.05949584 341.48564943 141.5625 349.375 C143.78909836 351.18490007 143.78909836 351.18490007 146 351 C146.33 351.99 146.66 352.98 147 354 C148.98260426 355.68732277 150.9832342 357.35366057 153 359 C153.66 359.99 154.32 360.98 155 362 C155.66 362 156.32 362 157 362 C157.226875 362.53625 157.45375 363.0725 157.6875 363.625 C159.43382056 366.78500863 161.6402849 369.2676983 164 372 C149.70482798 372.43538595 149.70482798 372.43538595 143 370 C142.34 369.34 141.68 368.68 141 368 C141 365 141 365 143 363 C139.0186217 361.6728739 135.14954773 361.93084087 131 362 C133.63880393 367.48871217 136.1123423 370.81693591 142 373 C150.75052079 375.42907433 159.97736627 375.56981169 169 376 C167.68 378.64 166.36 381.28 165 384 C166.32 384 167.64 384 169 384 C168.01 385.65 167.02 387.3 166 389 C170.1229832 391.8071375 172.64889908 393.26694574 177.6875 393 C181.73863636 392.81429426 181.73863636 392.81429426 184.375 394.6875 C186 397 186 397 187.5 399.6875 C188.76919046 402.06961312 188.76919046 402.06961312 190.765625 402.890625 C194.2213489 403.05978631 195.68111309 401.25957433 198.25 399.0625 C199.58804688 397.93521484 199.58804688 397.93521484 200.953125 396.78515625 C201.96632813 395.90150391 201.96632813 395.90150391 203 395 C203.33 395.33 203.66 395.66 204 396 C203.01 397.65 202.02 399.3 201 401 C201.99 400.5978125 201.99 400.5978125 203 400.1875 C203.99 399.795625 204.98 399.40375 206 399 C206.60457031 398.73574219 207.20914063 398.47148437 207.83203125 398.19921875 C217.86847147 394.02231759 227.2065188 396.42019701 237.0859375 400.171875 C240.88508428 401.75403896 244.65197101 403.40233019 248.4140625 405.0703125 C259.21739813 409.65902028 274.22861314 415.20516507 285.80078125 410.9765625 C286.52652344 410.65429688 287.25226563 410.33203125 288 410 C288 409.34 288 408.68 288 408 C287.43603516 407.86948242 286.87207031 407.73896484 286.29101562 407.60449219 C283.69147309 406.99665485 281.09584294 406.37343981 278.5 405.75 C277.613125 405.54503906 276.72625 405.34007812 275.8125 405.12890625 C270.06446971 403.73416361 265.10652159 402.02174901 260 399 C259.67 398.01 259.34 397.02 259 396 C258.14277344 395.96261719 257.28554688 395.92523438 256.40234375 395.88671875 C245.47144052 395.25822262 237.94966848 392.94966848 230 385 C229.34 385 228.68 385 228 385 C227.731875 384.401875 227.46375 383.80375 227.1875 383.1875 C224.53465386 378.30067817 221.5173193 377.32797329 216.25 375.75 C205.08357478 372.23973192 194.83272103 367.3623489 185 361 C184.34 361 183.68 361 183 361 C183 360.34 183 359.68 183 359 C182.01 359 181.02 359 180 359 C179.34 357.68 178.68 356.36 178 355 C177.34 355 176.68 355 176 355 C175.731875 354.443125 175.46375 353.88625 175.1875 353.3125 C173.89100504 350.78774666 172.57523677 348.36285516 171 346 C170.34 346 169.68 346 169 346 C169.3403125 344.6696875 169.3403125 344.6696875 169.6875 343.3125 C170.06608059 339.2995458 169.46710259 338.12499661 167 335 C166.236875 334.41476562 165.47375 333.82953125 164.6875 333.2265625 C161.7209901 330.76884354 159.43295172 328.05429292 157.125 325 C156.69445312 324.43837158 156.26390625 323.87674316 155.8203125 323.2980957 C152.20644269 318.48699707 149.22783278 313.46902582 146.375 308.16796875 C145.92125 307.45253906 145.4675 306.73710937 145 306 C144.34 306 143.68 306 143 306 C142.938125 305.443125 142.87625 304.88625 142.8125 304.3125 C141.66406092 301.04386569 139.46895567 299.41284304 137 297 C136.05983712 295.74644949 135.14299642 294.47507623 134.25 293.1875 C133.5075 292.135625 132.765 291.08375 132 290 C131.67 290 131.34 290 131 290 C130.67 292.64 130.34 295.28 130 298 C129.76925781 297.33613281 129.53851563 296.67226563 129.30078125 295.98828125 C127.3244767 290.63741715 125.64022188 286.59617196 121 283 C118.92309422 282.03955898 118.92309422 282.03955898 117 282 C116.34 282.33 115.68 282.66 115 283 C115.22860058 281.53815942 115.48370392 280.08044581 115.75 278.625 C115.88921875 277.81289063 116.0284375 277.00078125 116.171875 276.1640625 C117 274 117 274 119.078125 272.7109375 C119.71234375 272.47632813 120.3465625 272.24171875 121 272 C120.80664062 271.443125 120.61328125 270.88625 120.4140625 270.3125 C120.15367187 269.549375 119.89328125 268.78625 119.625 268 C119.36976563 267.2575 119.11453125 266.515 118.8515625 265.75 C117.96152507 262.87575069 117.25103692 259.97443241 116.53564453 257.05273438 C115.71369888 253.90281684 114.65614 250.83685223 113.625 247.75 C110.75804975 238.92910762 109.04129425 229.92586172 107.40136719 220.80908203 C107.05739935 218.91240842 107.05739935 218.91240842 106 217 C102.17398693 218.45124634 100.77670876 220.35774704 99 224 C99 224.99 99 225.98 99 227 C98.34 227 97.68 227 97 227 C97.31045732 225.0830014 97.62344671 223.16641277 97.9375 221.25 C98.11152344 220.18265625 98.28554687 219.1153125 98.46484375 218.015625 C98.88704171 215.63652407 99.37202884 213.33084789 100 211 C101.98 211.99 101.98 211.99 104 213 C104.33 210.69 104.66 208.38 105 206 C103.515 205.505 103.515 205.505 102 205 C101.01 205.495 101.01 205.495 100 206 C100.2165625 205.35933594 100.433125 204.71867187 100.65625 204.05859375 C102.31110436 198.91781934 103.55776532 194.46610017 103 189 C102.34 188.01 101.68 187.02 101 186 C100.01 186.495 100.01 186.495 99 187 C99.16298584 186.47889648 99.32597168 185.95779297 99.49389648 185.42089844 C100.14082676 182.32636846 100.11152397 179.42746404 100.09765625 176.265625 C100.09443359 174.97011719 100.09121094 173.67460937 100.08789062 172.33984375 C100.07953598 170.97656183 100.07107104 169.61328058 100.0625 168.25 C100.05748168 166.87109535 100.05291935 165.49218896 100.04882812 164.11328125 C100.03704093 160.74214341 100.02058635 157.37109372 100 154 C98.68 153.34 97.36 152.68 96 152 C96.13277344 151.45472656 96.26554687 150.90945312 96.40234375 150.34765625 C99.04799608 139.05052771 100.73854987 127.21564961 97 116 C95.7893443 113.94995161 95.7893443 113.94995161 94 113 C90.07715292 112.70719325 90.07715292 112.70719325 87.1875 114.375 Z M-50 138 C-49.67 138.66 -49.34 139.32 -49 140 C-48.34 140 -47.68 140 -47 140 C-47 139.34 -47 138.68 -47 138 C-47.99 138 -48.98 138 -50 138 Z M-14 148 C-11.48649162 150.51350838 -9.09845181 151.11371585 -5.77734375 152.21875 C-4 153 -4 153 -3 155 C-5.64 155 -8.28 155 -11 155 C-10.67 155.66 -10.34 156.32 -10 157 C-5.75519536 157.33292585 -3.64457375 157.43885872 -0.0625 155 C0.618125 154.34 1.29875 153.68 2 153 C1.3295913 149.91610733 1.3295913 149.91610733 -0.9375 148.8125 C-5.29934317 147.6552763 -9.5139128 147.84320472 -14 148 Z M-30 155 C-29.34 156.32 -28.68 157.64 -28 159 C-27.01 159 -26.02 159 -25 159 C-25 158.34 -25 157.68 -25 157 C-24.34 157 -23.68 157 -23 157 C-23 156.34 -23 155.68 -23 155 C-25.31 155 -27.62 155 -30 155 Z M-30 175 C-30 175.66 -30 176.32 -30 177 C-27.35261084 178.4606285 -26.10551666 179 -23 179 C-23 178.34 -23 177.68 -23 177 C-25.31 176.34 -27.62 175.68 -30 175 Z M-46 183 C-45.67 184.32 -45.34 185.64 -45 187 C-44.01 187 -43.02 187 -42 187 C-42.66 185.68 -43.32 184.36 -44 183 C-44.66 183 -45.32 183 -46 183 Z M-30 184 C-29.67 184.99 -29.34 185.98 -29 187 C-27.68 187 -26.36 187 -25 187 C-25 186.01 -25 185.02 -25 184 C-26.65 184 -28.3 184 -30 184 Z M7 194 C8 196 8 196 8 196 Z M-39 201 C-38.20379322 205.5029917 -36.95320724 209.8194375 -35.625 214.1875 C-35.41617188 214.91130859 -35.20734375 215.63511719 -34.9921875 216.38085938 C-33.6228676 220.95922493 -33.6228676 220.95922493 -30 224 C-30.42465706 216.63927766 -32.98348917 210.67862176 -36 204 C-36.66 204 -37.32 204 -38 204 C-38.33 203.01 -38.66 202.02 -39 201 Z M-45 204 C-44 206 -44 206 -44 206 Z M42 206 C42.34444881 208.47266765 42.34444881 208.47266765 43 211 C43.66 211.33 44.32 211.66 45 212 C44.34 210.02 43.68 208.04 43 206 C42.67 206 42.34 206 42 206 Z M-43 207 C-43.32295369 211.20590856 -42.47917432 213.41980263 -40.3125 217 C-37.9687633 221.08370048 -36.11629898 225.07755327 -34.5 229.5 C-31.38228226 237.89385545 -27.92896518 246.09000029 -21 252 C-21.27328125 251.34386719 -21.5465625 250.68773437 -21.828125 250.01171875 C-22.7160378 247.72978285 -23.52766494 245.46625986 -24.296875 243.14453125 C-26.75531438 235.77175984 -29.19791357 228.96436876 -33.484375 222.421875 C-35.89233196 218.57410872 -37.76124937 214.46886893 -39.703125 210.37109375 C-40.77595723 207.87447257 -40.77595723 207.87447257 -43 207 Z M45 212 C46 215 46 215 46 215 Z M20 231 C20 231.66 20 232.32 20 233 C20.66 233 21.32 233 22 233 C22 232.34 22 231.68 22 231 C21.34 231 20.68 231 20 231 Z M-29 250 C-28 252 -28 252 -28 252 Z M32 243 C32.82187261 247.38332057 33.90154282 251.67940177 35 256 C28.2300331 255.66705081 23.48901673 254.09960181 17.48046875 250.9609375 C14.75783401 249.90618452 13.67649475 249.96434003 11 251 C11.45375 252.0725 11.9075 253.145 12.375 254.25 C12.63023438 254.85328125 12.88546875 255.4565625 13.1484375 256.078125 C13.42945312 256.71234375 13.71046875 257.3465625 14 258 C14.25910156 258.69222656 14.51820312 259.38445312 14.78515625 260.09765625 C16.47308083 262.74080503 18.12909537 263.13437949 21.0625 264.1875 C27.41671912 266.63676264 33.27577567 269.7223783 39.21118164 273.0534668 C40.25133423 273.6244812 40.25133423 273.6244812 41.3125 274.20703125 C42.23482422 274.72487183 42.23482422 274.72487183 43.17578125 275.25317383 C45.28843667 276.25258264 45.28843667 276.25258264 49 276 C48.67 274.35 48.34 272.7 48 271 C47.34 271 46.68 271 46 271 C46 270.34 46 269.68 46 269 C45.34 269 44.68 269 44 269 C44 268.01 44 267.02 44 266 C43.01 266 42.02 266 41 266 C38.26716091 261.45741414 37.62265555 256.15042089 36.58789062 251.0234375 C35.64650461 246.1728291 35.64650461 246.1728291 32 243 Z M-28 252 C-27.52030877 258.07608889 -24.81616722 262.72515829 -22 268 C-21.48179688 269.00417969 -20.96359375 270.00835937 -20.4296875 271.04296875 C-17.24782358 277.11810894 -13.8519075 283.01865472 -10.1875 288.8125 C-9.80239258 289.42963867 -9.41728516 290.04677734 -9.02050781 290.68261719 C-8.06950753 292.15923675 -7.041221 293.5855511 -6 295 C-5.34 295 -4.68 295 -4 295 C-3.92523438 295.52722656 -3.85046875 296.05445313 -3.7734375 296.59765625 C-2.68799694 299.9691004 -0.67730855 302.5960918 1.375 305.4375 C5.78737329 311.62193934 5.78737329 311.62193934 7.6015625 314.84765625 C8.88131052 317.3066739 8.88131052 317.3066739 12 318 C12.495 321.465 12.495 321.465 13 325 C13.66 325 14.32 325 15 325 C15.185625 325.78375 15.37125 326.5675 15.5625 327.375 C17.25832371 331.651425 19.63026515 334.94201319 22.34375 338.6328125 C23.79790652 340.71115884 24.88195541 342.73499587 26 345 C27.91666921 347.25065102 27.91666921 347.25065102 30 349 C30.66 349 31.32 349 32 349 C32.226875 349.556875 32.45375 350.11375 32.6875 350.6875 C34.37550036 353.66159588 36.46676517 355.72008865 39 358 C39.66 358 40.32 358 41 358 C41.33 358.99 41.66 359.98 42 361 C44.58072903 363.32265612 45.45176068 364 49 364 C49.2371875 364.56203125 49.474375 365.1240625 49.71875 365.703125 C51.28947697 368.51894042 53.21471464 370.47955416 55.5 372.75 C56.2940625 373.54921875 57.088125 374.3484375 57.90625 375.171875 C59.78783462 377.21923609 59.78783462 377.21923609 62 377 C62 377.66 62 378.32 62 379 C62.99 379 63.98 379 65 379 C65.33 379.66 65.66 380.32 66 381 C68.34907875 381.68931344 68.34907875 381.68931344 71.0625 382.125 C72.44115234 382.37636719 72.44115234 382.37636719 73.84765625 382.6328125 C74.55792969 382.75398437 75.26820313 382.87515625 76 383 C75.19109447 378.74642936 73.24771409 376.8516514 70 374 C69.34 374 68.68 374 68 374 C68 373.34 68 372.68 68 372 C67.35933594 371.79246094 66.71867187 371.58492188 66.05859375 371.37109375 C59.26721637 368.95210837 53.34497898 365.68995796 50 359 C49.34 359 48.68 359 48 359 C48 357.68 48 356.36 48 355 C46.948125 354.649375 45.89625 354.29875 44.8125 353.9375 C40.39823149 352.0469446 38.30919684 349.11107013 36 345 C35.5875 343.948125 35.175 342.89625 34.75 341.8125 C32.18235714 337.68593112 28.52747178 336.46047477 24 335 C23.34 335 22.68 335 22 335 C22 334.01 22 333.02 22 332 C21.34 332 20.68 332 20 332 C19.79375 330.7625 19.5875 329.525 19.375 328.25 C17.43193263 319.64886962 13.89545739 311.78752822 6.68725586 306.515625 C4.83990577 304.85619086 4.15905895 303.58138156 3.1875 301.31640625 C0.9791742 296.6635644 -2.03137132 293.06924991 -5.375 289.1875 C-12.78931015 280.30431709 -17.51529377 271.40157771 -21.8359375 260.68359375 C-23.24425467 257.43690283 -24.83145819 254.78812518 -27 252 C-27.33 252 -27.66 252 -28 252 Z M69 281 C70.32 281.99 71.64 282.98 73 284 C73 283.01 73 282.02 73 281 C71.68 281 70.36 281 69 281 Z M43 283 C43 283.66 43 284.32 43 285 C43.66 285 44.32 285 45 285 C45 285.99 45 286.98 45 288 C43.02 287.34 41.04 286.68 39 286 C39.33 287.65 39.66 289.3 40 291 C38.35 290.67 36.7 290.34 35 290 C35.825 290.886875 36.65 291.77375 37.5 292.6875 C38.90625 294.19921875 38.90625 294.19921875 40 296 C39.96003906 296.81855469 39.92007813 297.63710938 39.87890625 298.48046875 C39.7229914 301.1571741 39.7229914 301.1571741 41.93359375 302.9140625 C42.75988281 303.47867187 43.58617188 304.04328125 44.4375 304.625 C48.90508475 307.71525424 48.90508475 307.71525424 50 311 C49.1028125 310.4740625 49.1028125 310.4740625 48.1875 309.9375 C45.89186786 308.66695302 45.89186786 308.66695302 43 310 C47.05853189 312.3283641 51.03614921 314.60732005 55.375 316.375 C59.80187754 318.35946234 63.63680202 320.95214703 67.64453125 323.671875 C68.42183594 324.11015625 69.19914062 324.5484375 70 325 C70.66 324.67 71.32 324.34 72 324 C70.68 323.34 69.36 322.68 68 322 C68.185625 320.453125 68.185625 320.453125 68.375 318.875 C67.97863221 314.77919948 67.84792474 314.41178657 65.0625 311.8125 C64.51722656 311.36519531 63.97195312 310.91789062 63.41015625 310.45703125 C62 309 62 309 61.52734375 306.98828125 C60.83096396 304.36267151 59.75754528 303.80909638 57.5 302.375 C54.09063444 300.18126888 54.09063444 300.18126888 53 298 C54.65 298 56.3 298 58 298 C57.67 297.34 57.34 296.68 57 296 C56.34 296 55.68 296 55 296 C55 294.35 55 292.7 55 291 C55.598125 290.87625 56.19625 290.7525 56.8125 290.625 C59.26231348 290.04524015 59.26231348 290.04524015 62 288 C52.68928473 284.69167013 52.68928473 284.69167013 43 283 Z M82 318 C86.52627181 322.8615512 90.34493427 325.22615515 97 326 C94.46987194 321.2770943 89.85090475 319.65211973 85 318 C84.01 318 83.02 318 82 318 Z M81 329 C81.33 329.66 81.66 330.32 82 331 C82.66 330.67 83.32 330.34 84 330 C83.01 329.67 82.02 329.34 81 329 Z M58.375 336.5 C57.92125 336.995 57.4675 337.49 57 338 C61.18927387 344.58314465 66.53959558 346.32947687 74 348 C79.44624959 348.66215801 83.88073712 348.10021041 89 346 C89 345.34 89 344.68 89 344 C86.26869007 342.17912671 84.13263371 341.3801822 81.00634766 340.54003906 C78.88102755 339.96797675 76.77562592 339.34486849 74.66796875 338.7109375 C73.93255859 338.49179687 73.19714844 338.27265625 72.43945312 338.046875 C70.91807479 337.59296854 69.39725356 337.13719127 67.87695312 336.6796875 C62.81634154 334.66881161 62.81634154 334.66881161 58.375 336.5 Z M91 339 C92.98 339.99 92.98 339.99 95 341 C95 341.66 95 342.32 95 343 C99.1083098 346.2064857 102.89612854 347.96032248 108 349 C110.33308448 348.73500396 110.33308448 348.73500396 112 348 C110.10244856 345.65026182 110.10244856 345.65026182 106.875 345.875 C105.451875 345.936875 105.451875 345.936875 104 346 C104 345.34 104 344.68 104 344 C102.39967863 343.15930585 100.79458829 342.32768495 99.1875 341.5 C98.29417969 341.0359375 97.40085938 340.571875 96.48046875 340.09375 C93.99431974 338.79826859 93.99431974 338.79826859 91 339 Z M105 339 C111.64654782 343.43103188 118.02764074 345.59054513 126 345 C122.71731747 343.22188029 119.30398665 341.95786684 115.8046875 340.68359375 C114 340 114 340 112 339 C109.6670134 338.95977609 107.33293334 338.95679753 105 339 Z M108 354 C110.5654594 356.5654594 112.47686668 356.54046087 116 357 C115.67 356.34 115.34 355.68 115 355 C112.67843403 354.59270772 110.3431213 354.25561323 108 354 Z M106 365 C107.64179359 368.12455058 107.64179359 368.12455058 110.1640625 368.73046875 C111.38222656 368.95669922 111.38222656 368.95669922 112.625 369.1875 C113.85089844 369.42533203 113.85089844 369.42533203 115.1015625 369.66796875 C115.72804687 369.77753906 116.35453125 369.88710938 117 370 C117 369.34 117 368.68 117 368 C115.9275 367.505 114.855 367.01 113.75 366.5 C113.14671875 366.2215625 112.5434375 365.943125 111.921875 365.65625 C109.70757164 364.78457076 109.70757164 364.78457076 106 365 Z M116 380 C120 381 120 381 120 381 Z M128 383 C130.67642489 385.18490007 130.67642489 385.18490007 133 385 C133 384.34 133 383.68 133 383 C131.35 383 129.7 383 128 383 Z M157 386 C157.33 386.66 157.66 387.32 158 388 C159.32 387.34 160.64 386.68 162 386 C160.35 386 158.7 386 157 386 Z M99 398 C106.16523013 404.04566292 113.17529816 407.65362698 122.046875 410.69140625 C125.11748697 412.05206102 126.81128232 413.4872246 129 416 C127.02 415.67 125.04 415.34 123 415 C125.59022436 417.59022436 128.52292567 418.57157645 131.875 419.875 C132.55409424 420.14038574 133.23318848 420.40577148 133.93286133 420.67919922 C135.95210469 421.46128549 137.97538214 422.23195275 140 423 C140.97582031 423.37640625 141.95164063 423.7528125 142.95703125 424.140625 C151.66761861 427.28092259 160.69630498 428.89747082 169.77539062 430.5859375 C171.58638669 430.92301491 173.39512238 431.272219 175.203125 431.625 C181.41532197 432.8153611 187.65814388 433.65219231 193.93359375 434.4375 C196.10765121 434.71816556 198.25300679 435.04687305 200.40893555 435.44628906 C209.59545423 437.13625032 218.81750729 437.87113753 228.12329102 438.54248047 C230.90212697 438.7473916 233.67823163 438.97692082 236.45507812 439.20703125 C257.79678421 441.26446626 257.79678421 441.26446626 278 436 C274.49231601 434.830772 271.82779221 434.93572993 268.12890625 435.0078125 C266.73503372 435.02536008 265.34115297 435.04226526 263.94726562 435.05859375 C261.76872449 435.08924659 259.59060651 435.12439364 257.41235352 435.17138672 C249.0683975 435.34169106 241.49236388 435.09081163 233.43334961 432.55419922 C230.77471305 431.94869054 229.56073486 432.20796098 227 433 C205.32577081 434.91657052 184.10824304 430.30942184 163 426 C163 425.34 163 424.68 163 424 C162.18917969 423.76925781 161.37835938 423.53851563 160.54296875 423.30078125 C153.92317991 421.35106463 147.71051854 419.10763415 141.4765625 416.15234375 C139.35705146 415.16613593 137.25715966 414.29928963 135.0625 413.5 C125.83732536 410.12493611 117.16870584 406.16441611 108.6171875 401.35546875 C106.19523596 399.84670281 106.19523596 399.84670281 104 400 C104 399.34 104 398.68 104 398 C102.35 398 100.7 398 99 398 Z M221.4375 404.6875 C220.65246094 405.18636719 219.86742187 405.68523437 219.05859375 406.19921875 C216.67725757 408.28232307 215.94096689 410.0143375 215 413 C216.32 412.67 217.64 412.34 219 412 C219 411.34 219 410.68 219 410 C220.32 410 221.64 410 223 410 C223 411.32 223 412.64 223 414 C225.86724686 413.42655063 226.8614515 413.1385485 229 411 C229.24253813 408.78927023 229.24253813 408.78927023 229.125 406.375 C229.10695313 405.55773437 229.08890625 404.74046875 229.0703125 403.8984375 C229.04710937 403.27195312 229.02390625 402.64546875 229 402 C225.4789462 402 224.34405733 402.78650616 221.4375 404.6875 Z M302 408 C302 408.66 302 409.32 302 410 C304.25641026 411.12820513 305.68216456 411.19555254 308.19140625 411.31640625 C309.47362061 411.37973145 309.47362061 411.37973145 310.78173828 411.44433594 C311.69938965 411.48333008 312.61704102 411.52232422 313.5625 411.5625 C314.96604736 411.6229248 314.96604736 411.6229248 316.39794922 411.68457031 C319.26502626 411.80028412 322.13222559 411.90319958 325 412 C326.28994873 412.04519775 326.28994873 412.04519775 327.60595703 412.09130859 C329.94573779 412.16420909 332.28441091 412.21265976 334.625 412.25 C335.67989624 412.28202515 335.67989624 412.28202515 336.75610352 412.31469727 C340.56923876 412.40540749 340.56923876 412.40540749 343.70458984 410.47949219 C344.1320752 409.99125977 344.55956055 409.50302734 345 409 C344.44538086 408.94465088 343.89076172 408.88930176 343.31933594 408.83227539 C340.7959083 408.57871893 338.27296117 408.32065495 335.75 408.0625 C334.87730469 407.97548828 334.00460937 407.88847656 333.10546875 407.79882812 C332.26113281 407.71181641 331.41679687 407.62480469 330.546875 407.53515625 C329.77182617 407.456604 328.99677734 407.37805176 328.19824219 407.29711914 C326 407 326 407 323.91845703 406.47705078 C320.98974397 405.74878591 318.13567015 405.8286864 315.125 405.8125 C313.33449219 405.79123047 313.33449219 405.79123047 311.5078125 405.76953125 C308.00075978 405.99995008 305.26429911 406.73720539 302 408 Z M241 406 C237.04 407.98 237.04 407.98 233 410 C233.33 411.32 233.66 412.64 234 414 C236.64 412.02 239.28 410.04 242 408 C241.67 407.34 241.34 406.68 241 406 Z M106 408 C106.66 408.66 107.32 409.32 108 410 C108.99 409.67 109.98 409.34 111 409 C109.35 408.67 107.7 408.34 106 408 Z M392 411 C399.06608191 411.13794954 405.97360585 410.74805717 413 410 C413 409.67 413 409.34 413 409 C410.24973583 408.94595551 407.50053797 408.90630694 404.75 408.875 C403.58404297 408.84986328 403.58404297 408.84986328 402.39453125 408.82421875 C396.91693064 408.74031699 396.91693064 408.74031699 392 411 Z M114 411 C115.98 411.99 115.98 411.99 118 413 C117.67 412.34 117.34 411.68 117 411 C116.01 411 115.02 411 114 411 Z M137 411 C138.98 411.99 138.98 411.99 141 413 C141 412.34 141 411.68 141 411 C139.68 411 138.36 411 137 411 Z M249 413 C248.01 414.485 248.01 414.485 247 416 C248.32 415.34 249.64 414.68 251 414 C250.34 413.67 249.68 413.34 249 413 Z M237 415 C236.01 416.485 236.01 416.485 235 418 C236.97536745 417.65213292 236.97536745 417.65213292 239 417 C239.33 416.34 239.66 415.68 240 415 C239.01 415 238.02 415 237 415 Z M157 418 C163.98028049 424.98028049 178.73127106 425.34166037 188 426 C187.67 425.34 187.34 424.68 187 424 C184.63671791 423.18393332 184.63671791 423.18393332 181.75 422.5625 C180.13158203 422.18351562 180.13158203 422.18351562 178.48046875 421.796875 C176.75763672 421.40242188 176.75763672 421.40242188 175 421 C173.26169922 420.57460938 173.26169922 420.57460938 171.48828125 420.140625 C164.3285389 418.37722027 164.3285389 418.37722027 157 418 Z M267 418 C264.80961577 419.37168238 264.80961577 419.37168238 263 421 C263.33 421.66 263.66 422.32 264 423 C265.98 421.68 267.96 420.36 270 419 C269.01 418.67 268.02 418.34 267 418 Z " fill="#fff" transform="translate(75,35)"/>
<path d="M0 0 C0.81462697 5.14536805 1.23953439 10.20431149 1.46484375 15.40625 C1.54198865 17.04200004 1.61930641 18.67774193 1.69677734 20.31347656 C1.75535919 21.58390808 1.75535919 21.58390808 1.81512451 22.88000488 C4.09943033 71.78579627 7.28283408 128.14221339 36.93359375 169.328125 C38 171 38 171 38 173 C38.66 173 39.32 173 40 173 C40.33 174.32 40.66 175.64 41 177 C40.01 177.33 39.02 177.66 38 178 C37.67 178.66 37.34 179.32 37 180 C33.73991357 176.83047153 30.77762123 173.60062011 28 170 C27.67 172.31 27.34 174.62 27 177 C24.21435052 175.60717526 24.1510515 174.08333957 23.125 171.1875 C21.07982979 165.86043499 21.07982979 165.86043499 17 162 C13.85518209 161.19684346 13.85518209 161.19684346 11 161 C11.49230769 154.6 11.49230769 154.6 14.0625 151.5625 C14.701875 151.046875 15.34125 150.53125 16 150 C15.80664062 149.443125 15.61328125 148.88625 15.4140625 148.3125 C15.02347656 147.1678125 15.02347656 147.1678125 14.625 146 C14.24214844 144.88625 14.24214844 144.88625 13.8515625 143.75 C12.96152507 140.87575069 12.25103692 137.97443241 11.53564453 135.05273438 C10.71369888 131.90281684 9.65614 128.83685223 8.625 125.75 C5.5362983 116.21486031 2 105.08637545 2 95 C-1.33557632 97.9905167 -3.15083921 100.93184627 -5 105 C-5.66 105 -6.32 105 -7 105 C-7.37851209 99.06997733 -6.10575375 94.52760359 -4 89 C-2.68 89 -1.36 89 0 89 C0 87.35 0 85.7 0 84 C-1.32 84 -2.64 84 -4 84 C-3.855625 83.35933594 -3.71125 82.71867187 -3.5625 82.05859375 C-1.40620692 73.43153081 -1.40620692 73.43153081 -3 65 C-3.66 65 -4.32 65 -5 65 C-4.98428955 64.01080566 -4.9685791 63.02161133 -4.95239258 62.00244141 C-4.8981654 58.33862423 -4.86367664 54.67484263 -4.83520508 51.01074219 C-4.82010186 49.42376749 -4.79961777 47.83683463 -4.77368164 46.25 C-4.73736405 43.97124927 -4.72028977 41.69304942 -4.70703125 39.4140625 C-4.69154739 38.70255035 -4.67606354 37.99103821 -4.66011047 37.25796509 C-4.62453492 35.04245596 -4.62453492 35.04245596 -5 32 C-5.99 31.34 -6.98 30.68 -8 30 C-7.77763672 28.07994141 -7.77763672 28.07994141 -7.55078125 26.12109375 C-7.17503532 22.76175404 -6.86298834 19.40553532 -6.60546875 16.03515625 C-6.53650391 15.21595703 -6.46753906 14.39675781 -6.39648438 13.55273438 C-6.25495991 11.86634477 -6.12777478 10.17870102 -6.01367188 8.49023438 C-5.94083984 7.68005859 -5.86800781 6.86988281 -5.79296875 6.03515625 C-5.7364917 5.3069165 -5.68001465 4.57867676 -5.62182617 3.82836914 C-5 2 -5 2 -3.01293945 0.74780273 C-1 0 -1 0 0 0 Z " fill="#2A2A2A" transform="translate(179,157)"/>
<path d="M0 0 C0.61230469 0.32613281 1.22460938 0.65226563 1.85546875 0.98828125 C3.95581037 2.13304677 3.95581037 2.13304677 6.3125 2.1875 C10.52815524 3.46200042 13.27995565 6.60582362 16 10 C16 10.66 16 11.32 16 12 C16.66 12 17.32 12 18 12 C19.5078125 13.96875 19.5078125 13.96875 21.125 16.5 C21.66382813 17.3353125 22.20265625 18.170625 22.7578125 19.03125 C23.16773438 19.6809375 23.57765625 20.330625 24 21 C23.26330078 21.65935547 23.26330078 21.65935547 22.51171875 22.33203125 C20.72458275 23.95842292 20.72458275 23.95842292 20.8125 26.6875 C20.874375 27.450625 20.93625 28.21375 21 29 C18.61435923 28.42415568 16.33317216 27.77772405 14 27 C14 27.66 14 28.32 14 29 C12.35 29 10.7 29 9 29 C8.505 27.515 8.505 27.515 8 26 C7.34 26 6.68 26 6 26 C4.68 22.7 3.36 19.4 2 16 C1.01 16.99 0.02 17.98 -1 19 C-0.41089844 19.73605469 0.17820312 20.47210938 0.78515625 21.23046875 C1.53667969 22.20628906 2.28820312 23.18210937 3.0625 24.1875 C3.81660156 25.15042969 4.57070312 26.11335938 5.34765625 27.10546875 C7 30 7 30 6.87109375 32.73828125 C6 35 6 35 4 37 C1.6171875 36.9765625 1.6171875 36.9765625 -1.125 36.625 C-2.03507812 36.51414062 -2.94515625 36.40328125 -3.8828125 36.2890625 C-4.58148438 36.19367188 -5.28015625 36.09828125 -6 36 C-6 36.66 -6 37.32 -6 38 C-5.01 38 -4.02 38 -3 38 C-0.625 40.125 -0.625 40.125 2 43 C2.9075 43.9075 3.815 44.815 4.75 45.75 C7.63769483 49.92111475 7.74479732 53.06314816 8 58 C8.31622777 60.00277585 8.64179815 62.00430399 9 64 C9.66 64 10.32 64 11 64 C10.67 64.66 10.34 65.32 10 66 C9.01 65.67 8.02 65.34 7 65 C6.505 66.485 6.505 66.485 6 68 C6 67.01 6 66.02 6 65 C5.01 65 4.02 65 3 65 C-0.63335931 61.59544166 -1.19142222 56.92420157 -2.1875 52.25 C-2.36474609 51.45722656 -2.54199219 50.66445313 -2.72460938 49.84765625 C-3.15863654 47.90039924 -3.58052679 45.95044396 -4 44 C-4.2236068 46.9254644 -4.2236068 46.9254644 -3 49 C-2.960008 50.99960012 -2.95653201 53.00047242 -3 55 C-8.87065533 56.71618199 -12.56271662 54.95302752 -17.875 52.5625 C-18.65875 52.22412109 -19.4425 51.88574219 -20.25 51.53710938 C-22.17252022 50.70479879 -24.08710472 49.85419934 -26 49 C-24.68 48.34 -23.36 47.68 -22 47 C-22.99 46.34 -23.98 45.68 -25 45 C-23.35 45 -21.7 45 -20 45 C-20 44.01 -20 43.02 -20 42 C-18.515 41.505 -18.515 41.505 -17 41 C-16.67 40.34 -16.34 39.68 -16 39 C-16.8971875 38.566875 -16.8971875 38.566875 -17.8125 38.125 C-20 37 -20 37 -23 35 C-23 34.34 -23 33.68 -23 33 C-24.32 32.34 -25.64 31.68 -27 31 C-27 30.34 -27 29.68 -27 29 C-27.99 28.67 -28.98 28.34 -30 28 C-30.75 26 -30.75 26 -31 24 C-30 23 -30 23 -26.4375 22.9375 C-25.303125 22.958125 -24.16875 22.97875 -23 23 C-23.08378906 22.08476562 -23.16757813 21.16953125 -23.25390625 20.2265625 C-23.35574219 19.03804687 -23.45757812 17.84953125 -23.5625 16.625 C-23.66691406 15.44164062 -23.77132812 14.25828125 -23.87890625 13.0390625 C-24 10 -24 10 -23 8 C-22.01 8 -21.02 8 -20 8 C-20 7.34 -20 6.68 -20 6 C-19.01 5.67 -18.02 5.34 -17 5 C-17 11.27 -17 17.54 -17 24 C-13.0594784 22.0297392 -11.03071853 20.10842926 -8 17 C-7.01 16.34 -6.02 15.68 -5 15 C-5 14.01 -5 13.02 -5 12 C-4.34 12 -3.68 12 -3 12 C-3 11.34 -3 10.68 -3 10 C-2.34 10 -1.68 10 -1 10 C-1 10.66 -1 11.32 -1 12 C-0.34 12 0.32 12 1 12 C0.67 11.34 0.34 10.68 0 10 C-0.06996014 8.29297265 -0.08440154 6.58331997 -0.0625 4.875 C-0.05347656 3.96492187 -0.04445313 3.05484375 -0.03515625 2.1171875 C-0.02355469 1.41851562 -0.01195313 0.71984375 0 0 Z M4 5 C4.34444881 7.47266765 4.34444881 7.47266765 5 10 C5.66 10.33 6.32 10.66 7 11 C6.34 9.02 5.68 7.04 5 5 C4.67 5 4.34 5 4 5 Z M7 11 C8 14 8 14 8 14 Z M-18 30 C-18 30.66 -18 31.32 -18 32 C-17.34 32 -16.68 32 -16 32 C-16 31.34 -16 30.68 -16 30 C-16.66 30 -17.32 30 -18 30 Z " fill="#232323" transform="translate(113,236)"/>
<path d="M0 0 C0.61230469 0.32613281 1.22460938 0.65226563 1.85546875 0.98828125 C3.95581037 2.13304677 3.95581037 2.13304677 6.3125 2.1875 C10.52815524 3.46200042 13.27995565 6.60582362 16 10 C16 10.66 16 11.32 16 12 C16.66 12 17.32 12 18 12 C19.5078125 13.96875 19.5078125 13.96875 21.125 16.5 C21.66382813 17.3353125 22.20265625 18.170625 22.7578125 19.03125 C23.16773438 19.6809375 23.57765625 20.330625 24 21 C23.26330078 21.65935547 23.26330078 21.65935547 22.51171875 22.33203125 C20.72458275 23.95842292 20.72458275 23.95842292 20.8125 26.6875 C20.874375 27.450625 20.93625 28.21375 21 29 C18.61435923 28.42415568 16.33317216 27.77772405 14 27 C14 27.66 14 28.32 14 29 C12.35 29 10.7 29 9 29 C8.67 28.01 8.34 27.02 8 26 C7.34 26 6.68 26 6 26 C4.68 22.7 3.36 19.4 2 16 C1.67 16.66 1.34 17.32 1 18 C-0.670625 18.2165625 -0.670625 18.2165625 -2.375 18.4375 C-5.93117808 18.98932074 -6.93374609 19.20448001 -9 22 C-9.66 21.67 -10.32 21.34 -11 21 C-7.25 16.125 -7.25 16.125 -5 15 C-5 14.01 -5 13.02 -5 12 C-4.34 12 -3.68 12 -3 12 C-3 11.34 -3 10.68 -3 10 C-2.34 10 -1.68 10 -1 10 C-1 10.66 -1 11.32 -1 12 C-0.34 12 0.32 12 1 12 C0.67 11.34 0.34 10.68 0 10 C-0.06996014 8.29297265 -0.08440154 6.58331997 -0.0625 4.875 C-0.05347656 3.96492187 -0.04445313 3.05484375 -0.03515625 2.1171875 C-0.02355469 1.41851562 -0.01195313 0.71984375 0 0 Z M4 5 C4.34444881 7.47266765 4.34444881 7.47266765 5 10 C5.66 10.33 6.32 10.66 7 11 C6.34 9.02 5.68 7.04 5 5 C4.67 5 4.34 5 4 5 Z M7 11 C8 14 8 14 8 14 Z " fill="#272727" transform="translate(113,236)"/>
<path d="M0 0 C7.51319888 1.44484594 12.55795022 5.95850719 18 11 C17.67 11.99 17.34 12.98 17 14 C14.03 13.505 14.03 13.505 11 13 C11.33 13.66 11.66 14.32 12 15 C12.45353794 21.23614663 12.45353794 21.23614663 10.8125 24 C9 25 9 25 6.4375 24.9375 C4 24 4 24 2.6875 21.9375 C2.460625 21.298125 2.23375 20.65875 2 20 C1.01 20 0.02 20 -1 20 C-1.66 19.01 -2.32 18.02 -3 17 C-4.32 17 -5.64 17 -7 17 C-6.67 16.34 -6.34 15.68 -6 15 C-5.34 15.33 -4.68 15.66 -4 16 C-4.66 15.01 -5.32 14.02 -6 13 C-6 12.01 -6 11.02 -6 10 C-1.25 10.875 -1.25 10.875 1 12 C1 11.34 1 10.68 1 10 C0.34 10 -0.32 10 -1 10 C-1 8.68 -1 7.36 -1 6 C1.475 6.99 1.475 6.99 4 8 C3.01 6.8553125 3.01 6.8553125 2 5.6875 C0 3 0 3 0 0 Z " fill="#312F30" transform="translate(84,212)"/>
<path d="M0 0 C3.93846154 3.32307692 3.93846154 3.32307692 4.25 6.75 C4.1675 7.4925 4.085 8.235 4 9 C5.32 9 6.64 9 8 9 C8 12.96 8 16.92 8 21 C8.66 21 9.32 21 10 21 C10.25 28.625 10.25 28.625 8 32 C6.35 31.67 4.7 31.34 3 31 C2.67 30.01 2.34 29.02 2 28 C1.34 27.67 0.68 27.34 0 27 C-3.87777992 19.51125988 -4.36696821 10.03623884 -2 2 C-1.34 2 -0.68 2 0 2 C0 1.34 0 0.68 0 0 Z " fill="#242424" transform="translate(153,231)"/>
<path d="M0 0 C7.80327779 -0.67854589 15.77808125 2.22986229 22 7 C22 7.99 22 8.98 22 10 C20.58194169 9.71517632 19.16559621 9.42181856 17.75 9.125 C16.96109375 8.96257812 16.1721875 8.80015625 15.359375 8.6328125 C13.03168856 8.00849925 11.10968048 7.15161458 9 6 C9 5.34 9 4.68 9 4 C7.68 4.33 6.36 4.66 5 5 C5.59167969 5.37511719 6.18335937 5.75023437 6.79296875 6.13671875 C11.35981624 9.09436713 15.3317794 11.97679031 19 16 C17.4375 17.1875 17.4375 17.1875 15 18 C11.6875 16.75 11.6875 16.75 9.86328125 15.8515625 C7.76662929 14.82176995 7.76662929 14.82176995 4.375 14.125 C0.37473554 12.79157851 -1.39759158 11.29128123 -4 8 C-4.8125 5.1875 -4.8125 5.1875 -5 3 C-3.35 2.67 -1.7 2.34 0 2 C0 1.34 0 0.68 0 0 Z " fill="#323232" transform="translate(97,205)"/>
<path d="M0 0 C0.99 0.33 1.98 0.66 3 1 C3.33 3.64 3.66 6.28 4 9 C4.33 8.01 4.66 7.02 5 6 C5.99 6 6.98 6 8 6 C7.19636925 13.63449217 5.66889533 20.16251326 2 27 C0.02 27 -1.96 27 -4 27 C-6.86253833 21.01973582 -6.09299054 15.39630377 -5 9 C-3.83022358 5.74133711 -2.49217619 2.49217619 0 0 Z M2 12 C1.67 14.31 1.34 16.62 1 19 C3.30671915 16.28450846 3.30671915 16.28450846 2.625 13.8125 C2.41875 13.214375 2.2125 12.61625 2 12 Z " fill="#333233" transform="translate(164,166)"/>
<path d="M0 0 C4.22670941 2.17373627 7.675148 4.80436866 10 9 C10.68687807 11.99435909 10.84177844 14.93923125 11 18 C11.31622777 20.00277585 11.64179815 22.00430399 12 24 C12.66 24 13.32 24 14 24 C13.67 24.66 13.34 25.32 13 26 C12.01 25.67 11.02 25.34 10 25 C9.67 25.99 9.34 26.98 9 28 C9 27.01 9 26.02 9 25 C8.01 25 7.02 25 6 25 C2.39113285 21.60875298 1.85048105 17.02609364 0.875 12.375 C-0.13528234 7.04577236 -0.13528234 7.04577236 -2 2 C-1.34 2 -0.68 2 0 2 C0 1.34 0 0.68 0 0 Z " fill="#313131" transform="translate(110,276)"/>
<path d="M0 0 C0 0.66 0 1.32 0 2 C-3.6118789 4.29523339 -6.42286135 4.08929975 -10.625 3.875 C-17.35089979 3.75577133 -22.02858486 5.07881656 -28 8 C-28.99 8.33 -29.98 8.66 -31 9 C-30.9375 6.75 -30.9375 6.75 -30 4 C-22.56035046 -1.54016455 -8.18973264 -5.45982176 0 0 Z " fill="#4A4A4B" transform="translate(123,130)"/>
<path d="M0 0 C1.37562854 1.28965176 2.70766393 2.62689293 4 4 C4 4.66 4 5.32 4 6 C4.66 6 5.32 6 6 6 C6 6.66 6 7.32 6 8 C6.78375 8.309375 7.5675 8.61875 8.375 8.9375 C11 10 11 10 13 11 C13 11.66 13 12.32 13 13 C13.66 13.33 14.32 13.66 15 14 C15 15.32 15 16.64 15 18 C15.2981424 19.34164079 15.62243192 20.67851173 16 22 C12.78539715 21.33795365 10.18997833 20.19453363 7.3125 18.625 C6.52488281 18.20476562 5.73726563 17.78453125 4.92578125 17.3515625 C1.4420679 14.90660343 1.34887037 10.13532985 0.5 6.15625 C-0.00239505 3.83655552 -0.00239505 3.83655552 -1 1 C-0.67 0.67 -0.34 0.34 0 0 Z " fill="#393939" transform="translate(101,186)"/>
<path d="M0 0 C1.07765625 0.00902344 2.1553125 0.01804687 3.265625 0.02734375 C4.08546875 0.03894531 4.9053125 0.05054687 5.75 0.0625 C5.75 0.3925 5.75 0.7225 5.75 1.0625 C2.45 1.3925 -0.85 1.7225 -4.25 2.0625 C-3.59 2.76375 -2.93 3.465 -2.25 4.1875 C0.05233203 7.49710229 0.11630156 9.12475823 -0.25 13.0625 C-6.65 14.29326923 -6.65 14.29326923 -9.6875 13.125 C-10.203125 12.774375 -10.71875 12.42375 -11.25 12.0625 C-11.39285714 4.63392857 -11.39285714 4.63392857 -10.25 1.0625 C-6.78777385 -0.00473961 -3.60960734 -0.03923486 0 0 Z " fill="#393838" transform="translate(153.25,115.9375)"/>
<path d="M0 0 C8.50789474 -0.16052632 8.50789474 -0.16052632 11.6875 2.3125 C13 4 13 4 13 8 C13.66 8 14.32 8 15 8 C15 9.32 15 10.64 15 12 C10.73763613 12.51665017 8.31392015 11.24431178 4.71484375 9.0234375 C2.57001426 7.74337981 0.34345995 6.85216725 -2 6 C-1.34 4.02 -0.68 2.04 0 0 Z " fill="#393939" transform="translate(71,145)"/>
<path d="M0 0 C7.51319888 1.44484594 12.55795022 5.95850719 18 11 C17.67 11.99 17.34 12.98 17 14 C13.8125 14.375 13.8125 14.375 10 14 C7.375 11.3125 7.375 11.3125 6.19921875 9.65625 C4.86616287 7.71030153 4.86616287 7.71030153 2.1875 5.3125 C0 3 0 3 0 0 Z " fill="#454445" transform="translate(84,212)"/>
<path d="M0 0 C4.90546929 1.92714865 7.16276127 5.74414191 10 10 C10.39387788 12.32387947 10.73486085 14.65793749 11 17 C7.93821529 16.67660877 6.39888457 16.40321087 4.19921875 14.1796875 C0.91422274 9.17155405 -0.76808149 6.01663836 0 0 Z " fill="#424242" transform="translate(222,358)"/>
<path d="M0 0 C0.71285156 0.39832031 1.42570313 0.79664063 2.16015625 1.20703125 C7.35606755 4.08121637 12.48553046 6.79421218 18 9 C16.68 10.32 15.36 11.64 14 13 C12 12 12 12 8.875 10.0625 C6.18631229 8.49082451 3.86422349 7.65573223 0.8125 7.0625 C-3.47488341 5.86765544 -4.66737795 4.69331825 -7 1 C-4.69 1.33 -2.38 1.66 0 2 C0 1.34 0 0.68 0 0 Z " fill="#696768" transform="translate(173,433)"/>
<path d="M0 0 C7.80327779 -0.67854589 15.77808125 2.22986229 22 7 C22 7.99 22 8.98 22 10 C20.58194169 9.71517632 19.16559621 9.42181856 17.75 9.125 C16.96109375 8.96257812 16.1721875 8.80015625 15.359375 8.6328125 C13.03168856 8.00849925 11.10968048 7.15161458 9 6 C9 5.34 9 4.68 9 4 C8.071875 4.20625 7.14375 4.4125 6.1875 4.625 C3 5 3 5 0 3 C0 2.01 0 1.02 0 0 Z " fill="#6A6A6A" transform="translate(97,205)"/>
<path d="M0 0 C3.5 1.1875 3.5 1.1875 5.5 3.1875 C5.125 5.3125 5.125 5.3125 4.5 7.1875 C1.86 7.1875 -0.78 7.1875 -3.5 7.1875 C-3.5 6.5275 -3.5 5.8675 -3.5 5.1875 C-4.49 4.8575 -5.48 4.5275 -6.5 4.1875 C-6.125 2.25 -6.125 2.25 -5.5 0.1875 C-3.5 -0.8125 -3.5 -0.8125 0 0 Z " fill="#3A3939" transform="translate(85.5,138.8125)"/>
<path d="M0 0 C0.58007812 0.13277344 1.16015625 0.26554687 1.7578125 0.40234375 C6.15770982 1.39704001 10.53894158 2.31368332 15 3 C14.01 3.495 14.01 3.495 13 4 C13.33 5.32 13.66 6.64 14 8 C10.53058454 7.54177532 7.32604951 7.10868317 4 6 C4 5.34 4 4.68 4 4 C2.88625 3.87625 1.7725 3.7525 0.625 3.625 C-3 3 -3 3 -5 1 C-2.525 1.495 -2.525 1.495 0 2 C0 1.34 0 0.68 0 0 Z " fill="#4E4D4E" transform="translate(234,455)"/>
<path d="M0 0 C2 1 2 1 3.25390625 4.5625 C3.69777123 6.03938406 4.1336331 7.51869118 4.5625 9 C5.6305611 13.87943572 5.6305611 13.87943572 8 18 C8.66 17.01 9.32 16.02 10 15 C10.33 17.31 10.66 19.62 11 22 C9.68 22 8.36 22 7 22 C5.46621464 19.21526125 3.9502442 16.42121662 2.4375 13.625 C1.99986328 12.8309375 1.56222656 12.036875 1.11132812 11.21875 C0.70205078 10.45820313 0.29277344 9.69765625 -0.12890625 8.9140625 C-0.70233765 7.8614624 -0.70233765 7.8614624 -1.28735352 6.78759766 C-1.52252686 6.19769043 -1.7577002 5.6077832 -2 5 C-1.67 4.34 -1.34 3.68 -1 3 C-0.34 3.33 0.32 3.66 1 4 C0.67 2.68 0.34 1.36 0 0 Z " fill="#787678" transform="translate(36,240)"/>
<path d="M0 0 C0.33 0.99 0.66 1.98 1 3 C0.67 3.66 0.34 4.32 0 5 C-2.32156597 5.40729228 -4.6568787 5.74438677 -7 6 C-7 7.32 -7 8.64 -7 10 C-8.32 9.67 -9.64 9.34 -11 9 C-9.1940483 3.08961261 -6.32336089 0 0 0 Z " fill="#595758" transform="translate(166,119)"/>
<path d="M0 0 C1.32 0 2.64 0 4 0 C5.80230168 3.82989106 6.19622241 6.78121808 6 11 C5.01 11.33 4.02 11.66 3 12 C0.58314288 7.77050005 -0.34833144 4.87664009 0 0 Z " fill="#4E4E4E" transform="translate(185,296)"/>
<path d="M0 0 C0.66 0 1.32 0 2 0 C3.35439668 2.70879335 3.06501451 5.00933268 3 8 C1.9275 8.28875 0.855 8.5775 -0.25 8.875 C-3.09400364 9.72820109 -5.43508983 10.5636503 -8 12 C-6.19587357 8.73539027 -5.16605307 7.11070205 -2 5 C-2 4.01 -2 3.02 -2 2 C-1.34 2 -0.68 2 0 2 C0 1.34 0 0.68 0 0 Z " fill="#3B3A3A" transform="translate(110,246)"/>
<path d="M0 0 C4.18296299 0.27280193 6.9532056 1.07039 10 4 C10 4.66 10 5.32 10 6 C7.69 6.33 5.38 6.66 3 7 C2.731875 6.360625 2.46375 5.72125 2.1875 5.0625 C1.11332248 2.66868314 1.11332248 2.66868314 -2 2 C-1.34 1.34 -0.68 0.68 0 0 Z " fill="#726E70" transform="translate(194,445)"/>
<path d="M0 0 C4.70238725 0.46101836 8.23262357 1.03176403 12 4 C12 4.99 12 5.98 12 7 C10.55989519 6.74337755 9.1229313 6.46909179 7.6875 6.1875 C6.88699219 6.03667969 6.08648437 5.88585937 5.26171875 5.73046875 C2.73679476 4.91499244 1.61930266 4.08046329 0 2 C0 1.34 0 0.68 0 0 Z " fill="#575757" transform="translate(107,208)"/>
<path d="M0 0 C2 2 2 2 2.01171875 4.05859375 C1.90472656 4.84363281 1.79773438 5.62867188 1.6875 6.4375 C1.58824219 7.21996094 1.48898438 8.00242188 1.38671875 8.80859375 C1 11 1 11 0 14 C-0.66 14 -1.32 14 -2 14 C-2.3690205 4.58997722 -2.3690205 4.58997722 0 0 Z " fill="#6F6F6F" transform="translate(173,231)"/>
<path d="M0 0 C0.66 0.33 1.32 0.66 2 1 C1.01 2.485 1.01 2.485 0 4 C0.66 4.33 1.32 4.66 2 5 C-4.625 7.875 -4.625 7.875 -8 9 C-7.9375 6.75 -7.9375 6.75 -7 4 C-4.75412136 2.18298261 -2.67371119 1.21958756 0 0 Z " fill="#787778" transform="translate(100,130)"/>
<path d="M0 0 C4.23830976 2.82553984 3.97715348 5.12180888 5 10 C4.01 10.33 3.02 10.66 2 11 C1.34 10.67 0.68 10.34 0 10 C0 6.7 0 3.4 0 0 Z " fill="#212121" transform="translate(113,236)"/>
<path d="M0 0 C2.475 0.495 2.475 0.495 5 1 C5.66 2.98 6.32 4.96 7 7 C5.35 7 3.7 7 2 7 C0.5393715 4.35261084 0 3.10551666 0 0 Z " fill="#555555" transform="translate(208,340)"/>
<path d="M0 0 C2.51083114 1.25541557 2.87125446 2.50063488 4 5 C1.69 5.66 -0.62 6.32 -3 7 C-3 6.34 -3 5.68 -3 5 C-3.66 4.67 -4.32 4.34 -5 4 C-3.35 2.68 -1.7 1.36 0 0 Z " fill="#6B6B6B" transform="translate(313,445)"/>
<path d="M0 0 C0.33 1.32 0.66 2.64 1 4 C1.99 4 2.98 4 4 4 C3.690625 4.763125 3.38125 5.52625 3.0625 6.3125 C2.32106407 8.18789677 1.63771783 10.08684652 1 12 C0.34 12 -0.32 12 -1 12 C-1.08159574 7.83861737 -0.98248524 4.0527516 0 0 Z " fill="#5D5D5D" transform="translate(173,250)"/>
<path d="M0 0 C1.65 0 3.3 0 5 0 C5 1.98 5 3.96 5 6 C2 6 2 6 0 5 C0 3.35 0 1.7 0 0 Z " fill="#505050" transform="translate(113,189)"/>
<path d="M0 0 C-1.47721422 3.45201639 -3.43794001 5.64961936 -6.125 8.25 C-6.84945313 8.95640625 -7.57390625 9.6628125 -8.3203125 10.390625 C-8.87460938 10.92171875 -9.42890625 11.4528125 -10 12 C-10 8.07290865 -8.72099538 7.1810287 -6.125 4.3125 C-5.04605469 3.10013672 -5.04605469 3.10013672 -3.9453125 1.86328125 C-2 0 -2 0 0 0 Z " fill="#6E6E6E" transform="translate(14,134)"/>
<path d="M0 0 C1.95216435 1.95216435 2.84826645 3.53199953 4 6 C4.66 5.01 5.32 4.02 6 3 C6.33 5.31 6.66 7.62 7 10 C5.68 10 4.36 10 3 10 C0.96564469 6.27034861 0 4.33094958 0 0 Z " fill="#646162" transform="translate(40,252)"/>
<path d="M0 0 C2.64 0 5.28 0 8 0 C5.93243723 2.7972908 4.85559629 3.02692273 1.3125 3.6875 C0.219375 3.790625 -0.87375 3.89375 -2 4 C-1.34 2.68 -0.68 1.36 0 0 Z " fill="#1D1B1E" transform="translate(102,130)"/>
<path d="M0 0 C3.68754757 0.49831724 5.60490662 1.10067643 8 4 C6.35 3.67 4.7 3.34 3 3 C3 4.32 3 5.64 3 7 C1.68 7 0.36 7 -1 7 C-0.67 6.34 -0.34 5.68 0 5 C0.66 5.33 1.32 5.66 2 6 C1.34 5.01 0.68 4.02 0 3 C0 2.01 0 1.02 0 0 Z " fill="#797878" transform="translate(78,222)"/>
<path d="M0 0 C0.99 0 1.98 0 3 0 C3.33 2.31 3.66 4.62 4 7 C3.01 7.33 2.02 7.66 1 8 C-0.35439668 5.29120665 -0.06501451 2.99066732 0 0 Z " fill="#777576" transform="translate(140,231)"/>
<path d="M0 0 C0.66 0 1.32 0 2 0 C2 3.3 2 6.6 2 10 C1.34 10 0.68 10 0 10 C-0.74926071 6.33694766 -1.2380014 3.57644848 0 0 Z " fill="#949494" transform="translate(168,231)"/>
<path d="M0 0 C2.62187494 1.04874998 3.79371361 1.64931313 5.25 4.125 C5.4975 4.74375 5.745 5.3625 6 6 C5.01 6.33 4.02 6.66 3 7 C2.34 6.67 1.68 6.34 1 6 C0.375 2.9375 0.375 2.9375 0 0 Z " fill="#757575" transform="translate(103,229)"/>
<path d="M0 0 C3.5625 0.3125 3.5625 0.3125 5.5 1.8125 C5.850625 2.3075 6.20125 2.8025 6.5625 3.3125 C4.9125 3.9725 3.2625 4.6325 1.5625 5.3125 C1.5625 3.9925 1.5625 2.6725 1.5625 1.3125 C-0.7475 1.6425 -3.0575 1.9725 -5.4375 2.3125 C-3.4375 0.3125 -3.4375 0.3125 0 0 Z " fill="#797778" transform="translate(27.4375,150.6875)"/>
<path d="M0 0 C0.33 0.99 0.66 1.98 1 3 C0.67 3.66 0.34 4.32 0 5 C-1.65 4.67 -3.3 4.34 -5 4 C-5.33 3.01 -5.66 2.02 -6 1 C-4 0 -4 0 0 0 Z " fill="#616060" transform="translate(166,119)"/>
<path d="M0 0 C1.98 0.66 3.96 1.32 6 2 C4.68 3.32 3.36 4.64 2 6 C-0.41466913 4.79266543 -2.69115369 3.39745961 -5 2 C-4.34 1.67 -3.68 1.34 -3 1 C-2.01 1.33 -1.02 1.66 0 2 C0 1.34 0 0.68 0 0 Z " fill="#848182" transform="translate(185,440)"/>
<path d="M0 0 C2.475 0.99 2.475 0.99 5 2 C5 3.32 5 4.64 5 6 C2.03 5.67 -0.94 5.34 -4 5 C-4 4.67 -4 4.34 -4 4 C-2.02 4 -0.04 4 2 4 C1.34 2.68 0.68 1.36 0 0 Z " fill="#6D6D6D" transform="translate(134,158)"/>
<path d="M0 0 C0 3 0 3 -1.875 5.1875 C-4.61160238 7.52166086 -5.43017345 7 -9 7 C-6.03 4.69 -3.06 2.38 0 0 Z " fill="#626161" transform="translate(53,73)"/>
<path d="M0 0 C1.875 0.25 1.875 0.25 4 1 C5.25 3.0625 5.25 3.0625 6 5 C5.01 5 4.02 5 3 5 C2.67 5.66 2.34 6.32 2 7 C0.5393715 4.35261084 0 3.10551666 0 0 Z " fill="#717171" transform="translate(149,299)"/>
<path d="M0 0 C0 3.63 0 7.26 0 11 C-0.33 11 -0.66 11 -1 11 C-1 8.69 -1 6.38 -1 4 C-2.65 4.33 -4.3 4.66 -6 5 C-6 4.34 -6 3.68 -6 3 C-5.01 3 -4.02 3 -3 3 C-3 2.34 -3 1.68 -3 1 C-1 0 -1 0 0 0 Z " fill="#8B8A8A" transform="translate(96,241)"/>
<path d="M0 0 C0.99 0 1.98 0 3 0 C2.67 2.64 2.34 5.28 2 8 C1.01 7.34 0.02 6.68 -1 6 C-0.67 4.02 -0.34 2.04 0 0 Z " fill="#686767" transform="translate(169,172)"/>
<path d="M0 0 C1.67542976 0.28604898 3.34385343 0.61781233 5 1 C4.67 1.66 4.34 2.32 4 3 C2.67511887 3.36548445 1.33981486 3.6937566 0 4 C-1.3479743 4.63654342 -2.68596724 5.29605388 -4 6 C-1.125 1.125 -1.125 1.125 0 0 Z " fill="#737172" transform="translate(106,252)"/>
<path d="M0 0 C0.66 0 1.32 0 2 0 C5 5.75 5 5.75 5 8 C3.0625 7.375 3.0625 7.375 1 6 C0.25 2.875 0.25 2.875 0 0 Z " fill="#767676" transform="translate(155,206)"/>
<path d="M0 0 C2.0625 1.625 2.0625 1.625 4 4 C3.75 7.25 3.75 7.25 3 10 C1.47700477 7.06279492 0.19899698 4.0831351 -1 1 C-0.67 0.67 -0.34 0.34 0 0 Z " fill="#828081" transform="translate(101,186)"/>
<path d="M0 0 C2.475 0.99 2.475 0.99 5 2 C5 2.66 5 3.32 5 4 C2.03 4 -0.94 4 -4 4 C-2.68 3.67 -1.36 3.34 0 3 C0 2.01 0 1.02 0 0 Z " fill="#747474" transform="translate(67,186)"/>
<path d="M0 0 C2.97 0.495 2.97 0.495 6 1 C6 1.66 6 2.32 6 3 C3.69 3.33 1.38 3.66 -1 4 C-0.67 2.68 -0.34 1.36 0 0 Z " fill="#3E3C3D" transform="translate(188,443)"/>
<path d="M0 0 C0.99 0.33 1.98 0.66 3 1 C1.35 2.65 -0.3 4.3 -2 6 C-2 5.34 -2 4.68 -2 4 C-2.66 3.67 -3.32 3.34 -4 3 C-2.1875 1.4375 -2.1875 1.4375 0 0 Z " fill="#545454" transform="translate(278,429)"/>
<path d="M0 0 C0.99 0.33 1.98 0.66 3 1 C3 2.98 3 4.96 3 7 C2.01 6.67 1.02 6.34 0 6 C0 4.02 0 2.04 0 0 Z " fill="#6B6A6A" transform="translate(99,242)"/>
<path d="M0 0 C0.66 0.33 1.32 0.66 2 1 C2 2.98 2 4.96 2 7 C1.01 6.67 0.02 6.34 -1 6 C-1.042721 4.33388095 -1.04063832 2.66617115 -1 1 C-0.67 0.67 -0.34 0.34 0 0 Z " fill="#676769" transform="translate(195,321)"/>
<path d="M0 0 C1.485 0.99 1.485 0.99 3 2 C2.34099246 5.07536854 1.46132217 7.07735566 0 10 C0 6.7 0 3.4 0 0 Z " fill="#5B5B5B" transform="translate(113,236)"/>
<path d="M0 0 C4.75 0.75 4.75 0.75 7 3 C5.02 3.33 3.04 3.66 1 4 C0.67 2.68 0.34 1.36 0 0 Z " fill="#161415" transform="translate(81,225)"/>
<path d="M0 0 C2.475 0.495 2.475 0.495 5 1 C5.33 1.99 5.66 2.98 6 4 C4.35 3.67 2.7 3.34 1 3 C0.67 2.01 0.34 1.02 0 0 Z " fill="#2F2D2D" transform="translate(179,438)"/>
<path d="M0 0 C0.99 0.33 1.98 0.66 3 1 C3 2.32 3 3.64 3 5 C2.01 5 1.02 5 0 5 C0 3.35 0 1.7 0 0 Z " fill="#757575" transform="translate(130,289)"/>
<path d="M0 0 C0.66 0 1.32 0 2 0 C2 2.31 2 4.62 2 7 C1.34 7 0.68 7 0 7 C0 4.69 0 2.38 0 0 Z " fill="#515050" transform="translate(179,268)"/>
<path d="M0 0 C0.66 0.33 1.32 0.66 2 1 C2 1.99 2 2.98 2 4 C1.01 4.33 0.02 4.66 -1 5 C-1.33 3.68 -1.66 2.36 -2 1 C-1.34 0.67 -0.68 0.34 0 0 Z " fill="#5F5E5F" transform="translate(73,139)"/>
<path d="M0 0 C0.99 0 1.98 0 3 0 C3.33 1.32 3.66 2.64 4 4 C2.68 3.34 1.36 2.68 0 2 C0 1.34 0 0.68 0 0 Z " fill="#909090" transform="translate(147,291)"/>
<path d="M0 0 C0.33 0 0.66 0 1 0 C1 1.65 1 3.3 1 5 C0.01 5 -0.98 5 -2 5 C-1.34 3.35 -0.68 1.7 0 0 Z " fill="#898989" transform="translate(177,257)"/>
<path d="M0 0 C0.99 0 1.98 0 3 0 C3 1.32 3 2.64 3 4 C2.01 3.67 1.02 3.34 0 3 C0 2.01 0 1.02 0 0 Z " fill="#8C8C8C" transform="translate(98,230)"/>
<path d="M0 0 C0.66 0 1.32 0 2 0 C2 1.65 2 3.3 2 5 C1.34 5 0.68 5 0 5 C0 3.35 0 1.7 0 0 Z " fill="#6D6D6D" transform="translate(217,352)"/>
<path d="M0 0 C0.66 0 1.32 0 2 0 C2 1.65 2 3.3 2 5 C1.34 4.67 0.68 4.34 0 4 C0 2.68 0 1.36 0 0 Z " fill="#777777" transform="translate(153,199)"/>
</svg>
